<?xml version="1.0" standalone="no"?>
<!DOCTYPE svg PUBLIC "-//W3C//DTD SVG 20010904//EN"
 "http://www.w3.org/TR/2001/REC-SVG-20010904/DTD/svg10.dtd">
<svg version="1.0" xmlns="http://www.w3.org/2000/svg"
 width="626.000000pt" height="626.000000pt" viewBox="0 0 626.000000 626.000000"
 preserveAspectRatio="xMidYMid meet">

<g transform="translate(0.000000,626.000000) scale(0.100000,-0.100000)"
fill="#000000" stroke="none">
<path d="M2148 4691 c-7 -69 -57 -168 -112 -223 -47 -46 -84 -67 -221 -128
-38 -17 -85 -43 -103 -57 -41 -31 -92 -108 -92 -140 0 -13 -3 -23 -6 -23 -3 0
-26 20 -51 45 -47 48 -151 103 -243 129 -74 21 -242 46 -313 46 -105 0 -238
61 -336 154 l-44 41 7 -44 c4 -24 19 -76 35 -115 113 -293 441 -518 902 -620
23 -5 28 -13 33 -51 12 -75 55 -214 102 -326 152 -363 435 -671 779 -849 44
-22 72 -35 61 -28 -272 187 -426 335 -564 540 -46 68 -122 202 -122 214 0 3
44 -39 98 -93 115 -116 221 -193 357 -261 175 -88 365 -137 566 -149 l106 -6
-99 -95 c-201 -193 -326 -439 -378 -746 -22 -134 -35 -342 -23 -374 l9 -24 44
34 c65 49 108 112 211 303 158 293 226 377 379 461 47 25 115 70 152 100 82
66 185 202 234 309 36 77 40 82 90 104 114 50 317 199 480 352 138 130 175
148 374 180 234 37 353 83 498 192 160 121 317 179 482 181 52 1 117 -3 144
-7 l49 -9 -7 46 c-9 55 -45 166 -74 221 -53 104 -150 189 -259 227 -57 19 -88
23 -193 23 -320 0 -652 -133 -1454 -579 -432 -241 -527 -289 -628 -325 -272
-95 -509 -89 -758 18 -122 53 -245 137 -361 249 -89 84 -178 189 -168 195 2 2
18 9 34 16 64 27 201 128 274 200 145 144 201 255 209 413 5 102 -14 193 -59
280 -27 54 -36 53 -41 -1z"/>
<path d="M5114 3523 c-66 -91 -250 -280 -349 -360 -276 -221 -589 -376 -935
-463 -218 -54 -202 -50 -145 -44 109 12 305 57 434 100 326 109 643 316 850
554 73 85 212 280 199 280 -2 0 -26 -30 -54 -67z"/>
<path d="M5283 3506 c-233 -335 -579 -618 -961 -785 -184 -81 -418 -148 -651
-186 l-86 -15 93 6 c241 13 550 98 786 216 310 155 594 404 785 687 44 66 95
151 89 151 -2 0 -27 -33 -55 -74z"/>
<path d="M5425 3493 c-96 -167 -301 -402 -480 -551 -200 -168 -450 -305 -710
-391 -223 -74 -349 -99 -700 -140 -75 -9 -72 -9 40 -5 380 16 687 88 974 230
224 110 384 228 561 410 143 148 247 289 325 443 32 64 26 66 -10 4z"/>
<path d="M5549 3488 c-37 -80 -167 -273 -251 -373 -317 -379 -744 -620 -1293
-730 -162 -33 -364 -55 -515 -56 -124 -2 -124 -2 -45 -9 75 -7 287 -4 346 5
25 4 27 1 33 -38 10 -63 36 -98 123 -165 96 -74 118 -97 229 -247 99 -133 242
-288 287 -311 39 -21 61 -11 52 23 -3 14 -42 82 -86 150 -102 156 -124 206
-148 326 -22 108 -54 185 -107 259 -19 28 -34 51 -32 53 2 2 40 13 84 24 289
74 582 219 805 399 144 116 303 297 406 463 48 76 146 269 140 275 -2 2 -14
-19 -28 -48z"/>
<path d="M4793 3367 c-188 -166 -450 -337 -670 -435 -108 -49 -294 -114 -376
-132 -31 -7 -55 -15 -53 -18 11 -10 210 32 316 67 284 95 516 238 740 458 106
104 131 139 43 60z"/>
<path d="M3543 2513 c9 -2 23 -2 30 0 6 3 -1 5 -18 5 -16 0 -22 -2 -12 -5z"/>
</g>
</svg>
